<svg xmlns="http://www.w3.org/2000/svg" height="128" width="128" data-name="Layer 1" id="click-here"><path d="M118.25 55.12a6.566 6.566 0 0 0-8.26-3.57 6.353 6.353 0 0 0-2.35 1.57 6.548 6.548 0 0 0-7.43-2.17 6.455 6.455 0 0 0-2.31 1.5 6.554 6.554 0 0 0-7.63-2.44 6.486 6.486 0 0 0-2.2 1.41l-3.73-8.64a6.56 6.56 0 0 0-8.26-3.57 6.304 6.304 0 0 0-3.58 3.42 6.182 6.182 0 0 0 .01 4.9l8.93 20.69a6.488 6.488 0 0 0-2.54.58 6.387 6.387 0 0 0-3.14 8.34l6.27 14.52a24.132 24.132 0 0 0 31.37 12.47 23.547 23.547 0 0 0 12.86-12.88 23.017 23.017 0 0 0-.17-17.97Zm4.3 34.65a19.587 19.587 0 0 1-10.71 10.72A20.095 20.095 0 0 1 85.7 90.11l-6.26-14.52a2.43 2.43 0 0 1 1.12-3.19 2.358 2.358 0 0 1 1.01-.22 2.43 2.43 0 0 1 .87.16 2.37 2.37 0 0 1 1.33 1.27l3.54 8.22a2.015 2.015 0 0 0 2.63 1.04 1.972 1.972 0 0 0 1.05-2.59l-14.8-34.31a2.254 2.254 0 0 1 0-1.8 2.357 2.357 0 0 1 1.33-1.28 2.53 2.53 0 0 1 3.14 1.44l14.73 34.13a1.994 1.994 0 0 0 1.84 1.2 1.992 1.992 0 0 0 1.84-2.75l-8.69-20.14a2.23 2.23 0 0 1 0-1.79 2.344 2.344 0 0 1 1.34-1.28 2.514 2.514 0 0 1 3.13 1.44l8.62 19.96a2.004 2.004 0 0 0 2.62 1.04 1.955 1.955 0 0 0 1.05-2.59l-6.83-15.84a2.307 2.307 0 0 1 1.34-3.07 2.5 2.5 0 0 1 3.13 1.43l6.76 15.66a2.015 2.015 0 0 0 2.63 1.04 1.971 1.971 0 0 0 1.05-2.59l-5.11-11.85c0-.01 0-.01-.01-.01a2.227 2.227 0 0 1 0-1.8 2.344 2.344 0 0 1 1.34-1.28 2.509 2.509 0 0 1 3.13 1.43l7.84 18.16a19.13 19.13 0 0 1 .14 14.94Z"></path><path d="M6 53.62h64.79l-1.95-4.51a10.104 10.104 0 0 1-.02-8.05 9.72 9.72 0 0 1 .78-1.46.01.01 0 0 1 .01-.01 8.519 8.519 0 0 1 1.1-1.45 10.215 10.215 0 0 1 3.94-2.67 9.877 9.877 0 0 1 2.07-.55 10.407 10.407 0 0 1 1.58-.12 9.146 9.146 0 0 1 1.66.14 10.544 10.544 0 0 1 8.05 6.25l2.03 4.71a10.524 10.524 0 0 1 8.31 1.49c.14-.06.28-.12.43-.18a10.253 10.253 0 0 1 3.64-.67 10.587 10.587 0 0 1 5.49 1.55c.21-.1.43-.19.66-.28a10.213 10.213 0 0 1 3.64-.67 10.564 10.564 0 0 1 9.71 6.4l.04.08h.09A5.965 5.965 0 0 0 128 47.7V27.93a5.97 5.97 0 0 0-6-5.93H6a5.97 5.97 0 0 0-6 5.93V47.7a5.969 5.969 0 0 0 6 5.92Zm69.51-25.63.65-1.48a2.013 2.013 0 0 1 2.63-1.03 1.97 1.97 0 0 1 1.04 2.6l-.65 1.48a1.99 1.99 0 0 1-1.83 1.2 2.053 2.053 0 0 1-.8-.17 1.966 1.966 0 0 1-1.04-2.6Zm-6.14-2.83a2.005 2.005 0 0 1 2.72.76l1.1 1.96a1.961 1.961 0 0 1-.77 2.69 2.121 2.121 0 0 1-.97.25 2.015 2.015 0 0 1-1.75-1.02l-1.1-1.96a1.956 1.956 0 0 1 .77-2.68Zm-5.3 6.65a1.997 1.997 0 0 1 2.46-1.38l1.75.48a1.965 1.965 0 0 1 1.39 2.43 1.998 1.998 0 0 1-1.92 1.45 1.883 1.883 0 0 1-.53-.07l-1.75-.48a1.97 1.97 0 0 1-1.4-2.43ZM26 35.84a1.975 1.975 0 1 1-2 1.97 1.987 1.987 0 0 1 2-1.97Zm-8 0a1.975 1.975 0 1 1-2 1.97 1.987 1.987 0 0 1 2-1.97Z"></path></svg>
