<svg xmlns="http://www.w3.org/2000/svg" xmlns:xlink="http://www.w3.org/1999/xlink" version="1.1" x="0px" y="0px" viewBox="0 0 110 137.5" enable-background="new 0 0 110 110" xml:space="preserve"><path d="M98.759,51.5H36.863c-1.426-3.828-5.107-6.566-9.426-6.566s-8,2.739-9.426,6.566h-7.706c-1.933,0-3.5,1.567-3.5,3.5  c0,1.933,1.567,3.5,3.5,3.5h7.706c1.426,3.828,5.107,6.566,9.426,6.566s8-2.738,9.426-6.566h61.896c1.933,0,3.5-1.567,3.5-3.5  C102.259,53.067,100.691,51.5,98.759,51.5z M27.437,63.566c-4.731,0-8.566-3.835-8.566-8.566c0-4.731,3.835-8.566,8.566-8.566  s8.566,3.835,8.566,8.566C36.003,59.731,32.167,63.566,27.437,63.566z"/></svg>
